G04 ================== begin FILE IDENTIFICATION RECORD ==================*
G04 Layout Name:  C:/kim-MV/allegro/KIM.brd*
G04 Film Name:    SST*
G04 File Format:  Gerber RS274X*
G04 File Origin:  Cadence Allegro 16.6-B033*
G04 Origin Date:  Tue Mar 12 11:19:12 2024*
G04 *
G04 Layer:  REF DES/SILKSCREEN_TOP*
G04 Layer:  PACKAGE GEOMETRY/SILKSCREEN_TOP*
G04 Layer:  BOARD GEOMETRY/OUTLINE*
G04 Layer:  BOARD GEOMETRY/SILKSCREEN_TOP*
G04 *
G04 Offset:    (0.000 0.000)*
G04 Mirror:    No*
G04 Mode:      Positive*
G04 Rotation:  0*
G04 FullContactRelief:  No*
G04 UndefLineWidth:     0.150*
G04 ================== end FILE IDENTIFICATION RECORD ====================*
%FSLAX54Y54*MOMM*%
%IR0*IPPOS*OFA0.00000B0.00000*MIA0B0*SFA1.00000B1.00000*%
%ADD10C,.3*%
%ADD11C,.5*%
%ADD12C,.15*%
G75*
%LPD*%
G75*
G54D10*
G01X0Y0D02*
X1000000D01*
Y700000D01*
X0D01*
Y0D01*
G54D11*
G01X154880Y25400D02*
X167260Y65020D01*
X179640Y25400D01*
G01X175190Y39270D02*
X159330D01*
G01X191580Y30680D02*
X195540Y27380D01*
X200000Y25400D01*
X203960D01*
X207920Y27380D01*
X210900Y30680D01*
X212380Y35310D01*
X211390Y39930D01*
X208910Y43890D01*
X204460Y46530D01*
X198510Y47850D01*
X195050Y50490D01*
X193560Y55110D01*
X194550Y59740D01*
X197030Y63040D01*
X200490Y65020D01*
X203960D01*
X207430Y63700D01*
X210400Y60400D01*
G01X236700Y65020D02*
Y25400D01*
G01X225310Y65020D02*
X248090D01*
G01X259040Y25400D02*
X271420Y65020D01*
X283800Y25400D01*
G01X279350Y39270D02*
X263490D01*
G01X310100Y46530D02*
X312080Y48510D01*
X313570Y51810D01*
X314560Y56440D01*
X313570Y60400D01*
X311590Y63040D01*
X308120Y65020D01*
X294750D01*
Y25400D01*
X311090D01*
X314560Y28040D01*
X316540Y32000D01*
X317530Y36630D01*
X316540Y41250D01*
X313570Y45210D01*
X310100Y46530D01*
X294750D01*
G01X330950Y65020D02*
Y25400D01*
X350770D01*
G01X385490D02*
X365670D01*
Y65020D01*
X385490D01*
G01X377560Y45870D02*
X365670D01*
G01X432140Y25400D02*
Y65020D01*
X445020Y32000D01*
X457900Y65020D01*
Y25400D01*
G01X473300Y38610D02*
X486180D01*
G01X502080Y65020D02*
X514460Y25400D01*
X526840Y65020D01*
G01X594800Y61720D02*
X591830Y63700D01*
X588360Y65020D01*
X584400D01*
X579940Y63040D01*
X576470Y59740D01*
X573990Y55770D01*
X572010Y49170D01*
X571520Y43230D01*
X572510Y37290D01*
X573990Y33320D01*
X576970Y29360D01*
X580430Y26720D01*
X583900Y25400D01*
X587370D01*
X590830Y26720D01*
X593810Y28700D01*
X596280Y31340D01*
G01X612680Y65020D02*
X624560D01*
G01X618620D02*
Y25400D01*
G01X612680D02*
X624560D01*
G01X643430D02*
Y65020D01*
X655820D01*
X659780Y63040D01*
X662260Y60400D01*
X663250Y55110D01*
X662260Y49830D01*
X659280Y46530D01*
X655820Y44550D01*
X643430D01*
G01X655820D02*
X663250Y25400D01*
G01X698960Y61720D02*
X695990Y63700D01*
X692520Y65020D01*
X688560D01*
X684100Y63040D01*
X680630Y59740D01*
X678150Y55770D01*
X676170Y49170D01*
X675680Y43230D01*
X676670Y37290D01*
X678150Y33320D01*
X681130Y29360D01*
X684590Y26720D01*
X688060Y25400D01*
X691530D01*
X694990Y26720D01*
X697970Y28700D01*
X700440Y31340D01*
G01X711880Y65020D02*
Y36630D01*
X713860Y30680D01*
X717830Y26720D01*
X722780Y25400D01*
X727730Y26720D01*
X731700Y30680D01*
X733680Y36630D01*
Y65020D01*
G01X751560D02*
X763440D01*
G01X757500D02*
Y25400D01*
G01X751560D02*
X763440D01*
G01X792220Y65020D02*
Y25400D01*
G01X780830Y65020D02*
X803610D01*
G54D12*
G01X78960Y137160D02*
Y124460D01*
X85390D01*
G01X98340D02*
X91910D01*
Y137160D01*
X98340D01*
G01X95770Y131020D02*
X91910D01*
G01X104540Y124460D02*
Y137160D01*
X107750D01*
X109040Y136520D01*
X110010Y135680D01*
X110810Y134410D01*
X111450Y132930D01*
X111610Y130810D01*
X111450Y128690D01*
X110810Y127210D01*
X110010Y125940D01*
X109040Y125090D01*
X107750Y124460D01*
X104540D01*
G01X121020D02*
Y137160D01*
X119090Y134620D01*
G01Y124460D02*
X122950D01*
G01X177800Y101600D02*
G03I-25400J0D01*
G01X143760Y204470D02*
X186440D01*
G01X143760D02*
G02X186440I21340J11377D01*
G01X157220Y241300D02*
X155940Y241510D01*
X154810Y242360D01*
X153850Y243630D01*
X153200Y245110D01*
X152880Y246800D01*
Y248500D01*
X153200Y250190D01*
X153850Y251670D01*
X154810Y252940D01*
X155940Y253790D01*
X157220Y254000D01*
X158510Y253790D01*
X159640Y252940D01*
X160600Y251670D01*
X161250Y250190D01*
X161570Y248500D01*
Y246800D01*
X161250Y245110D01*
X160600Y243630D01*
X159640Y242360D01*
X158510Y241510D01*
X157220Y241300D01*
G01X158510Y244690D02*
X160440Y241300D01*
G01X170170D02*
Y254000D01*
X168240Y251460D01*
G01Y241300D02*
X172100D01*
G01X203200Y345440D02*
Y416560D01*
X228600D01*
Y345440D01*
X203200D01*
G01X148110Y556000D02*
Y563870D01*
X150550D01*
X151330Y563480D01*
X151810Y562950D01*
X152010Y561900D01*
X151810Y560850D01*
X151230Y560200D01*
X150550Y559800D01*
X148110D01*
G01X150550D02*
X152010Y556000D01*
G01X157930D02*
Y563870D01*
X156760Y562300D01*
G01Y556000D02*
X159100D01*
G01X190500Y607060D02*
Y535940D01*
X165100D01*
Y607060D01*
X190500D01*
G01X282160Y137160D02*
Y124460D01*
X288590D01*
G01X301540D02*
X295110D01*
Y137160D01*
X301540D01*
G01X298970Y131020D02*
X295110D01*
G01X307740Y124460D02*
Y137160D01*
X310950D01*
X312240Y136520D01*
X313210Y135680D01*
X314010Y134410D01*
X314650Y132930D01*
X314810Y130810D01*
X314650Y128690D01*
X314010Y127210D01*
X313210Y125940D01*
X312240Y125090D01*
X310950Y124460D01*
X307740D01*
G01X321170Y135040D02*
X322130Y136310D01*
X323260Y136950D01*
X324550Y137160D01*
X326160Y136740D01*
X327280Y135680D01*
X327600Y134410D01*
X327440Y133140D01*
X326800Y132080D01*
X323580Y129960D01*
X322130Y128480D01*
X321170Y126360D01*
X320850Y124460D01*
X327600D01*
G01X316230Y207260D02*
G02Y249940I-11377J21340D01*
G01X254820Y224000D02*
X253540Y224210D01*
X252410Y225060D01*
X251450Y226330D01*
X250800Y227810D01*
X250480Y229500D01*
Y231200D01*
X250800Y232890D01*
X251450Y234370D01*
X252410Y235640D01*
X253540Y236490D01*
X254820Y236700D01*
X256110Y236490D01*
X257240Y235640D01*
X258200Y234370D01*
X258850Y232890D01*
X259170Y231200D01*
Y229500D01*
X258850Y227810D01*
X258200Y226330D01*
X257240Y225060D01*
X256110Y224210D01*
X254820Y224000D01*
G01X256110Y227390D02*
X258040Y224000D01*
G01X264240Y226540D02*
X265200Y225060D01*
X266490Y224210D01*
X267940Y224000D01*
X269220Y224210D01*
X270510Y225270D01*
X271310Y226540D01*
X271470Y227810D01*
X271150Y229290D01*
X270030Y230350D01*
X268900Y230770D01*
X267450D01*
G01X268900D02*
X269870Y231410D01*
X270670Y232470D01*
X270990Y233740D01*
X270670Y235010D01*
X269870Y236060D01*
X268420Y236700D01*
X266970Y236490D01*
X265520Y235640D01*
G01X230840Y392430D02*
Y400300D01*
X233280D01*
X234060Y399910D01*
X234540Y399380D01*
X234740Y398330D01*
X234540Y397280D01*
X233960Y396630D01*
X233280Y396230D01*
X230840D01*
G01X233280D02*
X234740Y392430D01*
G01X240470D02*
X240660Y394140D01*
X240950Y395580D01*
X241340Y396890D01*
X241830Y398330D01*
X242610Y400300D01*
X238710D01*
G01X276460Y415500D02*
X275500Y416140D01*
X274370Y416560D01*
X273090D01*
X271640Y415920D01*
X270510Y414870D01*
X269710Y413600D01*
X269060Y411480D01*
X268900Y409570D01*
X269230Y407670D01*
X269710Y406400D01*
X270670Y405130D01*
X271800Y404280D01*
X272920Y403860D01*
X274050D01*
X275180Y404280D01*
X276140Y404920D01*
X276950Y405760D01*
G01X285870Y403860D02*
Y416560D01*
X283940Y414020D01*
G01Y403860D02*
X287800D01*
G01X248110Y554000D02*
Y561870D01*
X250550D01*
X251330Y561480D01*
X251810Y560950D01*
X252010Y559900D01*
X251810Y558850D01*
X251230Y558200D01*
X250550Y557800D01*
X248110D01*
G01X250550D02*
X252010Y554000D01*
G01X256080Y560560D02*
X256660Y561350D01*
X257350Y561740D01*
X258120Y561870D01*
X259100Y561610D01*
X259780Y560950D01*
X259970Y560160D01*
X259880Y559380D01*
X259490Y558720D01*
X257540Y557410D01*
X256660Y556490D01*
X256080Y555180D01*
X255890Y554000D01*
X259970D01*
G01X292100Y607060D02*
Y535940D01*
X266700D01*
Y607060D01*
X292100D01*
G01X381000Y101600D02*
G03I-25400J0D01*
G01X316230Y207260D02*
Y249940D01*
G01X355600Y381000D02*
G03I-25400J0D01*
G01X360110Y554000D02*
Y561870D01*
X362550D01*
X363330Y561480D01*
X363810Y560950D01*
X364010Y559900D01*
X363810Y558850D01*
X363230Y558200D01*
X362550Y557800D01*
X360110D01*
G01X362550D02*
X364010Y554000D01*
G01X367790Y555570D02*
X368370Y554660D01*
X369150Y554130D01*
X370030Y554000D01*
X370810Y554130D01*
X371580Y554790D01*
X372070Y555570D01*
X372170Y556360D01*
X371970Y557280D01*
X371290Y557930D01*
X370610Y558200D01*
X369740D01*
G01X370610D02*
X371200Y558590D01*
X371680Y559250D01*
X371880Y560030D01*
X371680Y560820D01*
X371200Y561480D01*
X370320Y561870D01*
X369440Y561740D01*
X368570Y561210D01*
G01X406400Y607060D02*
Y535940D01*
X381000D01*
Y607060D01*
X406400D01*
G01X561560Y137160D02*
Y124460D01*
X567990D01*
G01X580940D02*
X574510D01*
Y137160D01*
X580940D01*
G01X578370Y131020D02*
X574510D01*
G01X587140Y124460D02*
Y137160D01*
X590350D01*
X591640Y136520D01*
X592610Y135680D01*
X593410Y134410D01*
X594050Y132930D01*
X594210Y130810D01*
X594050Y128690D01*
X593410Y127210D01*
X592610Y125940D01*
X591640Y125090D01*
X590350Y124460D01*
X587140D01*
G01X600090Y127000D02*
X601050Y125520D01*
X602340Y124670D01*
X603790Y124460D01*
X605070Y124670D01*
X606360Y125730D01*
X607160Y127000D01*
X607320Y128270D01*
X607000Y129750D01*
X605880Y130810D01*
X604750Y131230D01*
X603300D01*
G01X604750D02*
X605720Y131870D01*
X606520Y132930D01*
X606840Y134200D01*
X606520Y135470D01*
X605720Y136520D01*
X604270Y137160D01*
X602820Y136950D01*
X601370Y136100D01*
G01X555860Y428200D02*
X554900Y428840D01*
X553770Y429260D01*
X552490D01*
X551040Y428620D01*
X549910Y427570D01*
X549110Y426300D01*
X548460Y424180D01*
X548300Y422270D01*
X548630Y420370D01*
X549110Y419100D01*
X550070Y417830D01*
X551200Y416980D01*
X552320Y416560D01*
X553450D01*
X554580Y416980D01*
X555540Y417620D01*
X556350Y418460D01*
G01X562220Y427140D02*
X563180Y428410D01*
X564310Y429050D01*
X565600Y429260D01*
X567210Y428840D01*
X568330Y427780D01*
X568650Y426510D01*
X568490Y425240D01*
X567850Y424180D01*
X564630Y422060D01*
X563180Y420580D01*
X562220Y418460D01*
X561900Y416560D01*
X568650D01*
G01X635000Y393700D02*
G03I-25400J0D01*
G01X548110Y556000D02*
Y563870D01*
X550550D01*
X551330Y563480D01*
X551810Y562950D01*
X552010Y561900D01*
X551810Y560850D01*
X551230Y560200D01*
X550550Y559800D01*
X548110D01*
G01X550550D02*
X552010Y556000D01*
G01X559100D02*
Y563870D01*
X555500Y558230D01*
X560360D01*
G01X596900Y607060D02*
Y535940D01*
X571500D01*
Y607060D01*
X596900D01*
G01X660400Y101600D02*
G03I-25400J0D01*
G01X606820Y232000D02*
X605540Y232210D01*
X604410Y233060D01*
X603450Y234330D01*
X602800Y235810D01*
X602480Y237500D01*
Y239200D01*
X602800Y240890D01*
X603450Y242370D01*
X604410Y243640D01*
X605540Y244490D01*
X606820Y244700D01*
X608110Y244490D01*
X609240Y243640D01*
X610200Y242370D01*
X610850Y240890D01*
X611170Y239200D01*
Y237500D01*
X610850Y235810D01*
X610200Y234330D01*
X609240Y233060D01*
X608110Y232210D01*
X606820Y232000D01*
G01X608110Y235390D02*
X610040Y232000D01*
G01X616720Y242580D02*
X617680Y243850D01*
X618810Y244490D01*
X620100Y244700D01*
X621710Y244280D01*
X622830Y243220D01*
X623150Y241950D01*
X622990Y240680D01*
X622350Y239620D01*
X619130Y237500D01*
X617680Y236020D01*
X616720Y233900D01*
X616400Y232000D01*
X623150D01*
G01X671830Y219960D02*
G02Y262640I-11377J21340D01*
G01X664110Y558000D02*
Y565870D01*
X666550D01*
X667330Y565480D01*
X667810Y564950D01*
X668010Y563900D01*
X667810Y562850D01*
X667230Y562200D01*
X666550Y561800D01*
X664110D01*
G01X666550D02*
X668010Y558000D01*
G01X671790Y559180D02*
X672370Y558520D01*
X673050Y558130D01*
X673930Y558000D01*
X674810Y558260D01*
X675490Y558790D01*
X675970Y559710D01*
X676070Y560750D01*
X675880Y561800D01*
X675390Y562460D01*
X674710Y562980D01*
X674030Y563120D01*
X673350Y562980D01*
X672470Y562460D01*
X672760Y565870D01*
X675390D01*
G01X739360Y137160D02*
Y124460D01*
X745790D01*
G01X758740D02*
X752310D01*
Y137160D01*
X758740D01*
G01X756170Y131020D02*
X752310D01*
G01X764940Y124460D02*
Y137160D01*
X768150D01*
X769440Y136520D01*
X770410Y135680D01*
X771210Y134410D01*
X771850Y132930D01*
X772010Y130810D01*
X771850Y128690D01*
X771210Y127210D01*
X770410Y125940D01*
X769440Y125090D01*
X768150Y124460D01*
X764940D01*
G01X783360D02*
Y137160D01*
X777400Y128060D01*
X785450D01*
G01X671830Y219960D02*
Y262640D01*
G01X711200Y607060D02*
Y535940D01*
X685800D01*
Y607060D01*
X711200D01*
G01X838200Y101600D02*
G03I-25400J0D01*
G01X824230Y207260D02*
G02Y249940I-11377J21340D01*
G01X764820Y226000D02*
X763540Y226210D01*
X762410Y227060D01*
X761450Y228330D01*
X760800Y229810D01*
X760480Y231500D01*
Y233200D01*
X760800Y234890D01*
X761450Y236370D01*
X762410Y237640D01*
X763540Y238490D01*
X764820Y238700D01*
X766110Y238490D01*
X767240Y237640D01*
X768200Y236370D01*
X768850Y234890D01*
X769170Y233200D01*
Y231500D01*
X768850Y229810D01*
X768200Y228330D01*
X767240Y227060D01*
X766110Y226210D01*
X764820Y226000D01*
G01X766110Y229390D02*
X768040Y226000D01*
G01X779710D02*
Y238700D01*
X773750Y229600D01*
X781800D01*
G01X758110Y364000D02*
Y371870D01*
X760550D01*
X761330Y371480D01*
X761810Y370950D01*
X762010Y369900D01*
X761810Y368850D01*
X761230Y368200D01*
X760550Y367800D01*
X758110D01*
G01X760550D02*
X762010Y364000D01*
G01X767930D02*
X768610Y364130D01*
X769390Y364520D01*
X769880Y365180D01*
X770070Y366100D01*
X769880Y367020D01*
X769290Y367800D01*
X768420Y368200D01*
X767440D01*
X766860Y368460D01*
X766370Y369120D01*
X766180Y370030D01*
X766470Y370950D01*
X767150Y371610D01*
X767930Y371870D01*
X768710Y371610D01*
X769390Y370950D01*
X769680Y370030D01*
X769490Y369120D01*
X769000Y368460D01*
X768420Y368200D01*
X767440D01*
X766570Y367800D01*
X765980Y367020D01*
X765790Y366100D01*
X765980Y365180D01*
X766470Y364520D01*
X767250Y364130D01*
X767930Y364000D01*
G01X800100Y416560D02*
Y345440D01*
X774700D01*
Y416560D01*
X800100D01*
G01X780110Y560000D02*
Y567870D01*
X782550D01*
X783330Y567480D01*
X783810Y566950D01*
X784010Y565900D01*
X783810Y564850D01*
X783230Y564200D01*
X782550Y563800D01*
X780110D01*
G01X782550D02*
X784010Y560000D01*
G01X788080Y563280D02*
X788760Y564200D01*
X789350Y564720D01*
X790120Y564980D01*
X790810Y564720D01*
X791290Y564200D01*
X791680Y563410D01*
X791780Y562490D01*
X791680Y561710D01*
X791290Y560920D01*
X790710Y560260D01*
X790030Y560000D01*
X789250Y560260D01*
X788570Y561050D01*
X788180Y562230D01*
X788080Y563540D01*
X788280Y565250D01*
X788570Y566160D01*
X789050Y567080D01*
X789740Y567740D01*
X790420Y567870D01*
X791100Y567610D01*
X791580Y566950D01*
G01X825500Y607060D02*
Y535940D01*
X800100D01*
Y607060D01*
X825500D01*
G01X824230Y207260D02*
Y249940D01*
G01X889000Y393700D02*
X914400D01*
Y342900D01*
X889000D01*
Y393700D01*
G01X922910Y390200D02*
X923300Y390590D01*
X923590Y391250D01*
X923780Y392160D01*
X923590Y392950D01*
X923200Y393480D01*
X922520Y393870D01*
X919890D01*
Y386000D01*
X923100D01*
X923780Y386520D01*
X924170Y387310D01*
X924370Y388230D01*
X924170Y389150D01*
X923590Y389930D01*
X922910Y390200D01*
X919890D01*
G01X930000Y393870D02*
Y386000D01*
G01X927760Y393870D02*
X932240D01*
G01X937870Y386000D02*
Y393870D01*
X936700Y392300D01*
G01Y386000D02*
X939040D01*
M02*
